<?xml version="1.0" encoding="utf-8"?>
<!-- Generator: Adobe Illustrator 19.0.0, SVG Export Plug-In . SVG Version: 6.00 Build 0)  -->
<svg version="1.1" id="Layer_1" xmlns="http://www.w3.org/2000/svg" xmlns:xlink="http://www.w3.org/1999/xlink" x="0px" y="0px"
	 viewBox="0 0 612 200" style="enable-background:new 0 0 612 200;" xml:space="preserve">
<style type="text/css">
	.st0{fill:#FFFFFF;}
</style>
<g id="XMLID_1_">
	<path id="XMLID_2_" class="st0" d="M95.2,86.3c0.4,1.1,0.8,2.1,1.3,3c0.5,0.9,1,1.7,1.7,2.4c0.6,0.7,1.4,1.2,2.3,1.6
		c0.9,0.4,1.9,0.6,3.1,0.6c0.8,0,1.5-0.1,2.2-0.4c0.7-0.3,1.3-0.6,1.8-1.1c0.5-0.5,0.9-1.1,1.2-1.7c0.3-0.7,0.4-1.4,0.4-2.2
		c0-1-0.2-1.9-0.6-2.6c-0.4-0.7-0.9-1.3-1.5-1.9c-0.6-0.5-1.3-1-2.1-1.4s-1.6-0.8-2.4-1.1c-0.9-0.4-1.9-0.9-2.8-1.4
		c-0.9-0.5-1.8-1.1-2.5-1.8c-0.7-0.7-1.3-1.5-1.8-2.3c-0.5-0.9-0.7-1.9-0.7-3.1c0-1.3,0.3-2.4,0.8-3.4c0.5-1,1.2-1.8,2.1-2.5
		c0.9-0.7,1.9-1.2,3.1-1.5s2.4-0.5,3.8-0.5c1.3,0,2.5,0.1,3.6,0.3c1.1,0.2,2.3,0.5,3.5,0.8c-0.1,0.7-0.1,1.3-0.2,1.8
		s-0.1,1.1-0.1,1.7c0,0.5,0,1.1,0,1.7c0,0.6,0,1.2,0,1.8l-1.3,0.1c-0.2-2.2-0.8-3.8-2-4.9c-1.1-1.1-2.7-1.6-4.6-1.6
		c-0.7,0-1.4,0.1-2,0.3c-0.6,0.2-1.1,0.6-1.6,1s-0.8,0.9-1.1,1.5c-0.3,0.6-0.4,1.3-0.4,2c0,1,0.2,1.8,0.5,2.5
		c0.3,0.7,0.8,1.2,1.3,1.7c0.6,0.5,1.2,0.9,1.9,1.3c0.7,0.4,1.5,0.7,2.3,1.1c1,0.4,2,0.9,3,1.4s1.9,1.1,2.7,1.8
		c0.8,0.7,1.4,1.5,1.9,2.4c0.5,0.9,0.7,2,0.7,3.3c0,1.4-0.3,2.6-0.9,3.7s-1.3,2-2.3,2.7c-0.9,0.7-2,1.3-3.3,1.7s-2.5,0.6-3.8,0.6
		c-1.1,0-2.3-0.1-3.5-0.3c-1.2-0.2-2.5-0.5-3.8-0.9c-0.1-1.4-0.3-2.6-0.5-3.8c-0.2-1.2-0.5-2.5-0.8-3.8L95.2,86.3z"/>
	<path id="XMLID_4_" class="st0" d="M155.1,89.9c0,0.7,0,1.3,0.1,1.7s0.3,0.8,0.6,1.1c0.3,0.3,0.7,0.4,1.2,0.5
		c0.5,0.1,1.2,0.2,2,0.2h2.2c1.2,0,2.2-0.1,2.9-0.3c0.7-0.2,1.4-0.5,1.9-1c0.5-0.5,1-1.1,1.4-1.8c0.4-0.8,0.8-1.7,1.3-2.8l1.2,0.3
		c-0.2,0.6-0.3,1.2-0.5,1.9c-0.1,0.7-0.3,1.3-0.4,2c-0.1,0.7-0.2,1.3-0.3,1.8c-0.1,0.6-0.1,1-0.2,1.4c-4.1,0-7.4,0-9.9,0
		c-2.5,0-4.4,0-5.7,0c-0.4,0-0.8,0-1.3,0c-0.5,0-1,0-1.6,0c-0.5,0-1.1,0-1.6,0c-0.5,0-0.9,0-1.3,0l-0.1-1c0.9-0.1,1.7-0.2,2.3-0.3
		c0.6-0.1,1-0.3,1.3-0.6c0.3-0.3,0.5-0.7,0.6-1.1c0.1-0.5,0.2-1.1,0.2-1.9V69.2c0-0.5,0-0.9-0.1-1.2s-0.3-0.6-0.6-0.8
		c-0.3-0.2-0.7-0.4-1.2-0.5c-0.5-0.1-1.2-0.2-2.1-0.2l0.1-1.1c0.4,0,0.8,0,1.3,0c0.5,0,1,0,1.5,0c0.5,0,1.1,0,1.6,0c0.5,0,1,0,1.4,0
		c0.8,0,2.5,0,5,0c2.6,0,5.8,0,9.8,0c-0.1,1-0.2,2.1-0.3,3.3c-0.1,1.1-0.1,2.4-0.1,3.7l-1.2,0c-0.2-1.1-0.4-1.9-0.6-2.6
		c-0.2-0.7-0.5-1.3-1-1.7c-0.4-0.4-0.9-0.7-1.6-0.9c-0.7-0.2-1.5-0.3-2.6-0.3h-4.4c-0.6,0-1,0.1-1.2,0.2c-0.2,0.1-0.3,0.4-0.3,1
		v10.6l10.4-0.3l0.2,0.2l-0.1,2.6c-1.9-0.2-3.7-0.3-5.5-0.3s-3.5-0.1-5-0.2V89.9z"/>
	<path id="XMLID_6_" class="st0" d="M229.6,95.4c-0.5-0.8-1.1-1.5-1.6-2.2c-0.5-0.7-1.1-1.4-1.7-2.1l-16.5-19.5l-0.1,0.1v18
		c0,1,0.1,1.7,0.2,2.3c0.1,0.5,0.3,1,0.6,1.2c0.3,0.3,0.7,0.5,1.2,0.6c0.5,0.1,1.2,0.2,2,0.2l-0.1,1.1c-0.7,0-1.4,0-2.3,0
		c-0.9,0-1.8,0-2.8,0c-0.8,0-1.6,0-2.4,0s-1.6,0-2.4,0l-0.1-1c0.8-0.1,1.5-0.2,2-0.3c0.5-0.1,1-0.3,1.3-0.7c0.3-0.3,0.5-0.9,0.7-1.6
		s0.2-1.7,0.2-2.9V73c0-0.9,0-1.6,0-2.1c0-0.5-0.1-1-0.1-1.3c-0.1-0.3-0.2-0.6-0.3-0.8c-0.1-0.2-0.3-0.5-0.5-0.7
		c-0.2-0.3-0.4-0.5-0.6-0.7s-0.4-0.3-0.7-0.5s-0.6-0.2-1-0.3s-0.9-0.1-1.4-0.2l0.1-1.1c0.2,0,0.6,0,1.1,0c0.5,0,1,0,1.6,0
		s1.2,0,1.8,0c0.6,0,1.2,0,1.8,0l19.7,23.2l0.1-0.1V70.8c0-1-0.1-1.7-0.2-2.3c-0.1-0.5-0.3-1-0.6-1.2c-0.3-0.3-0.7-0.5-1.3-0.6
		c-0.5-0.1-1.2-0.2-2.1-0.2l0.1-1.1c0.7,0,1.4,0,2.3,0c0.9,0,1.8,0,2.8,0c0.4,0,0.8,0,1.2,0c0.4,0,0.9,0,1.3,0c0.4,0,0.8,0,1.2,0
		c0.4,0,0.7,0,1,0l0,1c-0.8,0.1-1.5,0.2-2,0.3c-0.5,0.1-0.9,0.4-1.2,0.7c-0.3,0.3-0.5,0.9-0.6,1.6s-0.2,1.7-0.2,2.9v23.1L229.6,95.4
		z"/>
	<path id="XMLID_8_" class="st0" d="M280.9,65.5c0.7,0,1.6,0,2.7,0s2.2,0,3.3,0c1.1,0,2.3,0,3.5,0c1.2,0,2.4,0,3.7,0
		c-0.1,0.7-0.1,1.4-0.2,2c-0.1,0.6-0.1,1.2-0.1,1.8c0,0.6-0.1,1.2-0.1,1.8c0,0.6,0,1.2,0,1.9l-1.2,0.1c-0.2-1.1-0.4-2-0.6-2.8
		c-0.2-0.8-0.5-1.4-0.9-1.9c-0.4-0.5-1-0.8-1.7-1s-1.6-0.3-2.8-0.3H283v24.2c0,0.5,0,0.9,0.1,1.2s0.3,0.6,0.6,0.8s0.7,0.4,1.3,0.5
		c0.6,0.1,1.4,0.2,2.4,0.2l-0.1,1.1c-0.4,0-0.9,0-1.5,0c-0.5,0-1.1,0-1.7,0s-1.1,0-1.7,0c-0.6,0-1.1,0-1.6,0c-0.4,0-0.9,0-1.3,0
		c-0.5,0-1,0-1.5,0c-0.5,0-1,0-1.5,0c-0.5,0-0.9,0-1.3,0l-0.1-1c0.9-0.1,1.7-0.2,2.3-0.3s1-0.3,1.3-0.6c0.3-0.3,0.5-0.7,0.6-1.2
		c0.1-0.5,0.1-1.1,0.1-1.9v-23h-3.4c-1.1,0-2.1,0.1-2.8,0.3c-0.7,0.2-1.3,0.5-1.7,1c-0.4,0.5-0.8,1.1-1,1.9s-0.4,1.7-0.6,2.8
		l-1.2-0.1v-1.9c0-0.9,0-1.8,0-2.6c0-0.8-0.1-1.8-0.2-2.9c1.2,0,2.4,0,3.6,0c1.2,0,2.3,0,3.4,0s2.1,0,2.9,0S280.2,65.5,280.9,65.5z"
		/>
	<path id="XMLID_10_" class="st0" d="M328.2,93.9c0.8-0.1,1.4-0.2,1.9-0.3c0.5-0.1,0.9-0.3,1.2-0.6c0.3-0.3,0.5-0.7,0.6-1.1
		c0.1-0.5,0.2-1.1,0.2-1.9V69.2c0-0.5,0-0.9-0.1-1.2s-0.3-0.6-0.5-0.8c-0.3-0.2-0.7-0.4-1.2-0.5c-0.5-0.1-1.2-0.2-2-0.2l0.1-1.1
		c0.3,0,0.7,0,1.2,0c0.5,0,1,0,1.5,0c0.6,0,1.1,0,1.7,0s1.1,0,1.6,0c0.4,0,0.8,0,1.3,0c0.5,0,1,0,1.4,0s0.9,0,1.3,0
		c0.4,0,0.8,0,1.1,0l0.1,1c-0.8,0.1-1.5,0.2-2,0.3c-0.5,0.1-0.9,0.3-1.2,0.6c-0.3,0.3-0.5,0.7-0.6,1.1c-0.1,0.5-0.2,1.1-0.2,1.9
		v20.7c0,0.5,0,0.9,0.1,1.2c0.1,0.3,0.3,0.6,0.5,0.8s0.7,0.4,1.2,0.5c0.5,0.1,1.2,0.2,2.1,0.2v1.1c-0.3,0-0.7,0-1.2,0
		c-0.5,0-1,0-1.6,0c-0.5,0-1.1,0-1.6,0c-0.6,0-1.1,0-1.6,0c-0.4,0-0.9,0-1.3,0c-0.5,0-0.9,0-1.4,0s-0.9,0-1.3,0c-0.4,0-0.8,0-1.1,0
		L328.2,93.9z"/>
	<path id="XMLID_12_" class="st0" d="M399.9,95.4c-0.5-0.8-1.1-1.5-1.6-2.2c-0.5-0.7-1.1-1.4-1.7-2.1l-16.5-19.5l-0.1,0.1v18
		c0,1,0.1,1.7,0.2,2.3c0.1,0.5,0.3,1,0.6,1.2c0.3,0.3,0.7,0.5,1.2,0.6c0.5,0.1,1.2,0.2,2,0.2l-0.1,1.1c-0.7,0-1.4,0-2.3,0
		c-0.9,0-1.8,0-2.8,0c-0.8,0-1.6,0-2.4,0s-1.6,0-2.4,0l-0.1-1c0.8-0.1,1.5-0.2,2-0.3c0.5-0.1,1-0.3,1.3-0.7c0.3-0.3,0.5-0.9,0.7-1.6
		s0.2-1.7,0.2-2.9V73c0-0.9,0-1.6,0-2.1c0-0.5-0.1-1-0.1-1.3c-0.1-0.3-0.2-0.6-0.3-0.8c-0.1-0.2-0.3-0.5-0.5-0.7
		c-0.2-0.3-0.4-0.5-0.6-0.7s-0.4-0.3-0.7-0.5s-0.6-0.2-1-0.3s-0.9-0.1-1.4-0.2l0.1-1.1c0.2,0,0.6,0,1.1,0c0.5,0,1,0,1.6,0
		s1.2,0,1.8,0c0.6,0,1.2,0,1.8,0l19.7,23.2l0.1-0.1V70.8c0-1-0.1-1.7-0.2-2.3c-0.1-0.5-0.3-1-0.6-1.2c-0.3-0.3-0.7-0.5-1.3-0.6
		c-0.5-0.1-1.2-0.2-2.1-0.2l0.1-1.1c0.7,0,1.4,0,2.3,0c0.9,0,1.8,0,2.8,0c0.4,0,0.8,0,1.2,0c0.4,0,0.9,0,1.3,0c0.4,0,0.8,0,1.2,0
		c0.4,0,0.7,0,1,0l0,1c-0.8,0.1-1.5,0.2-2,0.3c-0.5,0.1-0.9,0.4-1.2,0.7c-0.3,0.3-0.5,0.9-0.6,1.6s-0.2,1.7-0.2,2.9v23.1L399.9,95.4
		z"/>
	<path id="XMLID_14_" class="st0" d="M447.3,89.9c0,0.7,0,1.3,0.1,1.7c0.1,0.5,0.3,0.8,0.6,1.1c0.3,0.3,0.7,0.4,1.2,0.5
		c0.5,0.1,1.2,0.2,2,0.2h2.2c1.2,0,2.2-0.1,2.9-0.3c0.7-0.2,1.4-0.5,1.9-1c0.5-0.5,1-1.1,1.4-1.8c0.4-0.8,0.8-1.7,1.3-2.8l1.2,0.3
		c-0.2,0.6-0.3,1.2-0.5,1.9s-0.3,1.3-0.4,2c-0.1,0.7-0.2,1.3-0.3,1.8s-0.1,1-0.2,1.4c-4.1,0-7.4,0-9.9,0c-2.5,0-4.4,0-5.7,0
		c-0.4,0-0.8,0-1.3,0c-0.5,0-1,0-1.6,0s-1.1,0-1.6,0c-0.5,0-0.9,0-1.3,0l-0.1-1c0.9-0.1,1.7-0.2,2.3-0.3c0.6-0.1,1-0.3,1.3-0.6
		c0.3-0.3,0.5-0.7,0.6-1.1c0.1-0.5,0.2-1.1,0.2-1.9V69.2c0-0.5,0-0.9-0.1-1.2c-0.1-0.3-0.3-0.6-0.6-0.8c-0.3-0.2-0.7-0.4-1.2-0.5
		c-0.5-0.1-1.2-0.2-2.1-0.2l0.1-1.1c0.4,0,0.8,0,1.3,0c0.5,0,1,0,1.5,0c0.5,0,1.1,0,1.6,0s1,0,1.4,0c0.8,0,2.5,0,5,0s5.8,0,9.8,0
		c-0.1,1-0.2,2.1-0.3,3.3c-0.1,1.1-0.1,2.4-0.1,3.7l-1.2,0c-0.2-1.1-0.4-1.9-0.6-2.6c-0.2-0.7-0.5-1.3-1-1.7
		c-0.4-0.4-0.9-0.7-1.6-0.9c-0.7-0.2-1.5-0.3-2.6-0.3h-4.4c-0.6,0-1,0.1-1.2,0.2c-0.2,0.1-0.3,0.4-0.3,1v10.6l10.4-0.3l0.2,0.2
		l-0.1,2.6c-1.9-0.2-3.7-0.3-5.5-0.3c-1.8-0.1-3.5-0.1-5-0.2V89.9z"/>
	<path id="XMLID_16_" class="st0" d="M507.9,66.4c-0.8,0.1-1.5,0.2-2,0.3c-0.5,0.1-0.9,0.3-1.2,0.6c-0.3,0.3-0.5,0.7-0.6,1.2
		s-0.2,1.1-0.2,1.9v19.5c0,0.7,0,1.3,0.1,1.7c0.1,0.5,0.3,0.8,0.6,1.1c0.3,0.3,0.7,0.4,1.2,0.5c0.5,0.1,1.2,0.2,2,0.2h1.6
		c1.2,0,2.2-0.1,2.9-0.3c0.8-0.2,1.4-0.5,1.9-1c0.5-0.5,1-1.1,1.4-1.8c0.4-0.8,0.8-1.7,1.3-2.8l1.2,0.3c-0.2,0.6-0.3,1.2-0.5,1.9
		s-0.3,1.3-0.4,2c-0.1,0.7-0.2,1.3-0.3,1.8c-0.1,0.6-0.1,1-0.2,1.4h-4.7c-1.4,0-2.5,0-3.5,0c-1,0-1.8,0-2.5,0s-1.3,0-1.8,0
		c-0.5,0-1,0-1.4,0h-1.1c-0.4,0-0.9,0-1.4,0c-0.5,0-1,0-1.5,0s-1,0-1.4,0c-0.4,0-0.8,0-1.1,0l-0.1-1c0.8-0.1,1.5-0.2,2-0.3
		c0.5-0.1,0.9-0.3,1.2-0.6c0.3-0.3,0.5-0.7,0.6-1.1c0.1-0.5,0.2-1.1,0.2-1.9V69.2c0-0.5,0-0.9-0.1-1.2c-0.1-0.3-0.3-0.6-0.6-0.8
		c-0.3-0.2-0.7-0.4-1.2-0.5c-0.5-0.1-1.2-0.2-2.1-0.2l0.1-1.1c0.3,0,0.7,0,1.2,0c0.5,0,1,0,1.6,0c0.6,0,1.1,0,1.7,0s1.1,0,1.6,0
		c0.4,0,0.8,0,1.3,0s1,0,1.5,0s1,0,1.4,0c0.4,0,0.8,0,1.1,0L507.9,66.4z"/>
</g>
<g id="XMLID_18_">
	<path id="XMLID_19_" class="st0" d="M145.5,118c0.1,0,0.4,0,0.7,0s0.7,0,1.2,0c0.4,0,0.9,0,1.3,0c0.4,0,0.8,0,1.1,0
		c0.2,0.5,0.4,1,0.6,1.5c0.2,0.5,0.4,1,0.7,1.5l5,11.1h0.1l4.9-11.3c0.2-0.5,0.4-0.9,0.6-1.4c0.2-0.5,0.4-0.9,0.6-1.4
		c0.2,0,0.5,0,1,0c0.4,0,0.8,0,1.3,0c0.4,0,0.9,0,1.2,0s0.7,0,0.8,0l0,0.6c-0.5,0-0.9,0.1-1.2,0.2c-0.3,0.1-0.5,0.2-0.7,0.4
		c-0.2,0.2-0.3,0.4-0.3,0.7c0,0.3-0.1,0.6-0.1,1.1l0.4,11.8c0,0.3,0,0.5,0.1,0.7s0.2,0.3,0.4,0.5s0.4,0.2,0.7,0.3
		c0.3,0.1,0.7,0.1,1.2,0.1l0,0.6c-0.2,0-0.5,0-0.7,0c-0.3,0-0.6,0-0.9,0c-0.3,0-0.6,0-0.9,0c-0.3,0-0.6,0-0.9,0c-0.2,0-0.5,0-0.7,0
		s-0.5,0-0.7,0c-0.2,0-0.5,0-0.7,0c-0.2,0-0.4,0-0.6,0l-0.1-0.6c0.4,0,0.8-0.1,1-0.2c0.3-0.1,0.4-0.2,0.6-0.4
		c0.1-0.2,0.2-0.4,0.2-0.7s0-0.6,0-1.1l-0.3-11.2l-0.1-0.1c-1,2.4-2,4.7-3.1,7.1c-1,2.3-2,4.7-3,7.1l-0.8,0.1c-1-2.3-2-4.6-3-6.8
		s-2-4.4-3.1-6.7l-0.1,0l-0.4,10.1c0,0.6,0,1,0,1.3c0,0.3,0.1,0.5,0.3,0.7s0.4,0.3,0.7,0.3c0.3,0.1,0.6,0.1,1.1,0.1l0,0.6
		c-0.4,0-0.8,0-1.2,0c-0.4,0-0.9,0-1.5,0c-0.4,0-0.9,0-1.4,0c-0.5,0-0.9,0-1.3,0l-0.1-0.6c0.5,0,0.9-0.1,1.2-0.2
		c0.3-0.1,0.5-0.2,0.7-0.4s0.3-0.5,0.4-0.9c0.1-0.4,0.1-1,0.1-1.7l0.4-9.1c0-0.4,0-0.8,0-1.1s0-0.6-0.1-0.8s-0.1-0.4-0.2-0.6
		c-0.1-0.2-0.2-0.3-0.3-0.4c-0.2-0.2-0.5-0.4-0.8-0.5c-0.3-0.1-0.7-0.1-1.2-0.2L145.5,118z"/>
	<path id="XMLID_21_" class="st0" d="M180.9,128.6h-5.9l-1.4,3.5c-0.2,0.7-0.4,1.1-0.4,1.3c0,0.3,0.1,0.5,0.4,0.6
		c0.3,0.1,0.8,0.2,1.5,0.2l-0.1,0.6c-0.4,0-0.9,0-1.5,0c-0.5,0-1.1,0-1.6,0c-0.4,0-0.9,0-1.3,0c-0.5,0-0.9,0-1.3,0l0-0.6
		c0.5,0,0.8-0.1,1.1-0.2c0.3-0.1,0.5-0.2,0.8-0.4s0.4-0.5,0.6-0.8s0.4-0.8,0.7-1.4l4.9-11.9c0.1-0.4,0.3-0.7,0.4-0.9
		c0.2-0.3,0.3-0.5,0.4-0.9l1.1-0.1c0.1,0.6,0.3,1.1,0.4,1.5s0.3,0.9,0.4,1.3l4,11.5c0.2,0.5,0.3,0.9,0.5,1.2s0.3,0.5,0.5,0.7
		c0.2,0.2,0.4,0.3,0.7,0.3c0.3,0.1,0.7,0.1,1.1,0.1l-0.1,0.6c-0.5,0-1,0-1.6,0c-0.6,0-1.2,0-1.8,0c-0.5,0-1,0-1.5,0
		c-0.5,0-1,0-1.5,0l-0.1-0.6c0.7,0,1.1-0.1,1.4-0.2c0.3-0.1,0.4-0.3,0.4-0.6c0-0.1,0-0.3-0.1-0.4c0-0.2-0.1-0.4-0.2-0.6L180.9,128.6
		z M175.5,127.6h5.1l-2.3-7h-0.1L175.5,127.6z"/>
	<path id="XMLID_24_" class="st0" d="M205.2,135.1c-0.3-0.4-0.6-0.9-0.9-1.3c-0.3-0.4-0.6-0.8-1-1.2l-9.4-11.2l-0.1,0v10.3
		c0,0.6,0,1,0.1,1.3s0.2,0.5,0.4,0.7c0.2,0.2,0.4,0.3,0.7,0.3s0.7,0.1,1.2,0.1l0,0.6c-0.4,0-0.8,0-1.3,0c-0.5,0-1,0-1.6,0
		c-0.4,0-0.9,0-1.4,0c-0.5,0-0.9,0-1.3,0l-0.1-0.6c0.5,0,0.9-0.1,1.2-0.2c0.3-0.1,0.5-0.2,0.7-0.4s0.3-0.5,0.4-0.9s0.1-1,0.1-1.7
		v-8.8c0-0.5,0-0.9,0-1.2s0-0.6-0.1-0.7c0-0.2-0.1-0.4-0.2-0.5s-0.2-0.3-0.3-0.4c-0.1-0.2-0.2-0.3-0.4-0.4s-0.3-0.2-0.4-0.3
		c-0.2-0.1-0.3-0.1-0.6-0.2s-0.5-0.1-0.8-0.1l0-0.6c0.1,0,0.3,0,0.6,0s0.6,0,0.9,0c0.3,0,0.7,0,1.1,0c0.4,0,0.7,0,1,0l11.3,13.3
		l0.1,0v-10.2c0-0.6,0-1-0.1-1.3c-0.1-0.3-0.2-0.5-0.4-0.7s-0.4-0.3-0.7-0.3c-0.3-0.1-0.7-0.1-1.2-0.1l0-0.6c0.4,0,0.8,0,1.3,0
		c0.5,0,1.1,0,1.6,0c0.2,0,0.5,0,0.7,0s0.5,0,0.7,0c0.2,0,0.5,0,0.7,0s0.4,0,0.6,0l0,0.6c-0.5,0-0.8,0.1-1.1,0.2
		c-0.3,0.1-0.5,0.2-0.7,0.4s-0.3,0.5-0.4,0.9s-0.1,0.9-0.1,1.7v13.2L205.2,135.1z"/>
	<path id="XMLID_26_" class="st0" d="M222.6,128.6h-5.9l-1.4,3.5c-0.2,0.7-0.4,1.1-0.4,1.3c0,0.3,0.1,0.5,0.4,0.6
		c0.3,0.1,0.8,0.2,1.5,0.2l-0.1,0.6c-0.4,0-0.9,0-1.5,0c-0.5,0-1.1,0-1.6,0c-0.4,0-0.9,0-1.3,0c-0.5,0-0.9,0-1.3,0l0-0.6
		c0.5,0,0.8-0.1,1.1-0.2c0.3-0.1,0.5-0.2,0.8-0.4s0.4-0.5,0.6-0.8s0.4-0.8,0.7-1.4l4.9-11.9c0.1-0.4,0.3-0.7,0.4-0.9
		c0.2-0.3,0.3-0.5,0.4-0.9l1.1-0.1c0.1,0.6,0.3,1.1,0.4,1.5s0.3,0.9,0.4,1.3l4,11.5c0.2,0.5,0.3,0.9,0.5,1.2s0.3,0.5,0.5,0.7
		c0.2,0.2,0.4,0.3,0.7,0.3c0.3,0.1,0.7,0.1,1.1,0.1l-0.1,0.6c-0.5,0-1,0-1.6,0c-0.6,0-1.2,0-1.8,0c-0.5,0-1,0-1.5,0
		c-0.5,0-1,0-1.5,0l-0.1-0.6c0.7,0,1.1-0.1,1.4-0.2c0.3-0.1,0.4-0.3,0.4-0.6c0-0.1,0-0.3-0.1-0.4c0-0.2-0.1-0.4-0.2-0.6L222.6,128.6
		z M217.2,127.6h5.1l-2.3-7h-0.1L217.2,127.6z"/>
	<path id="XMLID_29_" class="st0" d="M246.9,122.6c0-0.7-0.2-1.3-0.5-1.8c-0.3-0.5-0.6-0.9-1-1.3c-0.4-0.3-0.9-0.6-1.5-0.8
		c-0.6-0.2-1.2-0.2-1.8-0.2c-1.2,0-2.3,0.2-3.1,0.6s-1.6,0.9-2.2,1.5s-1,1.5-1.3,2.4c-0.3,0.9-0.4,2-0.4,3.1c0,1.1,0.1,2.2,0.4,3.2
		c0.3,1,0.7,1.9,1.3,2.6c0.6,0.7,1.3,1.3,2.2,1.7c0.9,0.4,1.9,0.6,3.1,0.6c0.2,0,0.4,0,0.8-0.1s0.8-0.1,1.2-0.2
		c0.4-0.1,0.7-0.2,1-0.4c0.3-0.2,0.4-0.3,0.4-0.6v-3.5c0-0.3,0-0.5-0.1-0.7c-0.1-0.2-0.2-0.3-0.4-0.5s-0.5-0.2-0.9-0.3
		s-0.9-0.1-1.6-0.1l0-0.6c0.3,0,0.6,0,0.9,0c0.3,0,0.7,0,1,0c0.3,0,0.7,0,1,0c0.3,0,0.6,0,0.9,0c0.2,0,0.5,0,0.7,0s0.5,0,0.8,0
		s0.5,0,0.7,0c0.2,0,0.4,0,0.6,0l0.1,0.6c-0.3,0-0.6,0.1-0.8,0.2c-0.2,0.1-0.4,0.2-0.5,0.4s-0.2,0.4-0.2,0.7c0,0.3-0.1,0.6-0.1,1.1
		v1.1c0,0.6,0,1.1,0,1.6c0,0.5,0,0.9,0.1,1.3c-0.9,0.3-1.9,0.5-2.9,0.7s-1.9,0.3-2.9,0.3c-1.4,0-2.6-0.2-3.8-0.6
		c-1.2-0.4-2.2-1-3-1.7c-0.8-0.8-1.5-1.7-2-2.7c-0.5-1.1-0.7-2.2-0.7-3.5c0-1.5,0.3-2.8,0.8-3.9c0.5-1.1,1.3-2.1,2.2-2.8
		c0.9-0.8,2-1.3,3.3-1.7s2.6-0.6,4-0.6c0.4,0,0.8,0,1.2,0.1c0.4,0,0.9,0.1,1.3,0.2c0.4,0.1,0.9,0.1,1.3,0.2c0.4,0.1,0.8,0.2,1.2,0.3
		c-0.1,0.8-0.1,1.5-0.1,2.1c0,0.7,0,1.4,0,2.1L246.9,122.6z"/>
	<path id="XMLID_31_" class="st0" d="M258.1,132c0,0.4,0,0.7,0.1,1s0.2,0.5,0.3,0.6c0.2,0.1,0.4,0.2,0.7,0.3
		c0.3,0.1,0.7,0.1,1.2,0.1h1.3c0.7,0,1.2-0.1,1.7-0.2c0.4-0.1,0.8-0.3,1.1-0.6s0.6-0.6,0.8-1c0.2-0.4,0.5-1,0.7-1.6l0.7,0.2
		c-0.1,0.3-0.2,0.7-0.3,1.1s-0.2,0.8-0.2,1.1s-0.1,0.7-0.2,1.1c0,0.3-0.1,0.6-0.1,0.8c-2.3,0-4.2,0-5.7,0c-1.4,0-2.5,0-3.2,0
		c-0.2,0-0.5,0-0.7,0s-0.6,0-0.9,0s-0.6,0-0.9,0c-0.3,0-0.5,0-0.7,0l-0.1-0.6c0.5,0,1-0.1,1.3-0.2c0.3-0.1,0.6-0.2,0.8-0.4
		s0.3-0.4,0.4-0.7s0.1-0.6,0.1-1.1v-11.8c0-0.3,0-0.5-0.1-0.7c-0.1-0.2-0.2-0.3-0.3-0.5s-0.4-0.2-0.7-0.3s-0.7-0.1-1.2-0.1l0.1-0.6
		c0.2,0,0.5,0,0.8,0c0.3,0,0.6,0,0.9,0c0.3,0,0.6,0,0.9,0s0.6,0,0.8,0c0.5,0,1.4,0,2.9,0c1.5,0,3.3,0,5.6,0
		c-0.1,0.6-0.1,1.2-0.2,1.9c0,0.7-0.1,1.4-0.1,2.1l-0.7,0c-0.1-0.6-0.2-1.1-0.4-1.5s-0.3-0.7-0.5-1c-0.2-0.2-0.5-0.4-0.9-0.5
		c-0.4-0.1-0.9-0.1-1.5-0.1h-2.5c-0.4,0-0.6,0-0.7,0.1s-0.1,0.3-0.1,0.5v6.1l5.9-0.2l0.1,0.1l0,1.5c-1.1-0.1-2.1-0.2-3.2-0.2
		s-2-0.1-2.9-0.1V132z"/>
	<path id="XMLID_33_" class="st0" d="M270.5,118c0.1,0,0.4,0,0.7,0s0.7,0,1.2,0c0.4,0,0.9,0,1.3,0c0.4,0,0.8,0,1.1,0
		c0.2,0.5,0.4,1,0.6,1.5c0.2,0.5,0.4,1,0.7,1.5l5,11.1h0.1l4.9-11.3c0.2-0.5,0.4-0.9,0.6-1.4c0.2-0.5,0.4-0.9,0.6-1.4
		c0.2,0,0.5,0,1,0c0.4,0,0.8,0,1.3,0c0.4,0,0.9,0,1.2,0s0.7,0,0.8,0l0,0.6c-0.5,0-0.9,0.1-1.2,0.2c-0.3,0.1-0.5,0.2-0.7,0.4
		c-0.2,0.2-0.3,0.4-0.3,0.7c0,0.3-0.1,0.6-0.1,1.1l0.4,11.8c0,0.3,0,0.5,0.1,0.7s0.2,0.3,0.4,0.5s0.4,0.2,0.7,0.3
		c0.3,0.1,0.7,0.1,1.2,0.1l0,0.6c-0.2,0-0.5,0-0.7,0c-0.3,0-0.6,0-0.9,0c-0.3,0-0.6,0-0.9,0c-0.3,0-0.6,0-0.9,0c-0.2,0-0.5,0-0.7,0
		s-0.5,0-0.7,0c-0.2,0-0.5,0-0.7,0c-0.2,0-0.4,0-0.6,0l-0.1-0.6c0.4,0,0.8-0.1,1-0.2c0.3-0.1,0.4-0.2,0.6-0.4
		c0.1-0.2,0.2-0.4,0.2-0.7s0-0.6,0-1.1l-0.3-11.2l-0.1-0.1c-1,2.4-2,4.7-3.1,7.1c-1,2.3-2,4.7-3,7.1l-0.8,0.1c-1-2.3-2-4.6-3-6.8
		s-2-4.4-3.1-6.7l-0.1,0l-0.4,10.1c0,0.6,0,1,0,1.3c0,0.3,0.1,0.5,0.3,0.7s0.4,0.3,0.7,0.3c0.3,0.1,0.6,0.1,1.1,0.1l0,0.6
		c-0.4,0-0.8,0-1.2,0c-0.4,0-0.9,0-1.5,0c-0.4,0-0.9,0-1.4,0c-0.5,0-0.9,0-1.3,0l-0.1-0.6c0.5,0,0.9-0.1,1.2-0.2
		c0.3-0.1,0.5-0.2,0.7-0.4s0.3-0.5,0.4-0.9c0.1-0.4,0.1-1,0.1-1.7l0.4-9.1c0-0.4,0-0.8,0-1.1s0-0.6-0.1-0.8s-0.1-0.4-0.2-0.6
		c-0.1-0.2-0.2-0.3-0.3-0.4c-0.2-0.2-0.5-0.4-0.8-0.5c-0.3-0.1-0.7-0.1-1.2-0.2L270.5,118z"/>
	<path id="XMLID_35_" class="st0" d="M300.3,132c0,0.4,0,0.7,0.1,1s0.2,0.5,0.3,0.6c0.2,0.1,0.4,0.2,0.7,0.3
		c0.3,0.1,0.7,0.1,1.2,0.1h1.3c0.7,0,1.2-0.1,1.7-0.2c0.4-0.1,0.8-0.3,1.1-0.6s0.6-0.6,0.8-1c0.2-0.4,0.5-1,0.7-1.6l0.7,0.2
		c-0.1,0.3-0.2,0.7-0.3,1.1s-0.2,0.8-0.2,1.1s-0.1,0.7-0.2,1.1c0,0.3-0.1,0.6-0.1,0.8c-2.3,0-4.2,0-5.7,0c-1.4,0-2.5,0-3.2,0
		c-0.2,0-0.5,0-0.7,0s-0.6,0-0.9,0s-0.6,0-0.9,0c-0.3,0-0.5,0-0.7,0l-0.1-0.6c0.5,0,1-0.1,1.3-0.2c0.3-0.1,0.6-0.2,0.8-0.4
		s0.3-0.4,0.4-0.7s0.1-0.6,0.1-1.1v-11.8c0-0.3,0-0.5-0.1-0.7c-0.1-0.2-0.2-0.3-0.3-0.5s-0.4-0.2-0.7-0.3s-0.7-0.1-1.2-0.1l0.1-0.6
		c0.2,0,0.5,0,0.8,0c0.3,0,0.6,0,0.9,0c0.3,0,0.6,0,0.9,0s0.6,0,0.8,0c0.5,0,1.4,0,2.9,0c1.5,0,3.3,0,5.6,0
		c-0.1,0.6-0.1,1.2-0.2,1.9c0,0.7-0.1,1.4-0.1,2.1l-0.7,0c-0.1-0.6-0.2-1.1-0.4-1.5s-0.3-0.7-0.5-1c-0.2-0.2-0.5-0.4-0.9-0.5
		c-0.4-0.1-0.9-0.1-1.5-0.1h-2.5c-0.4,0-0.6,0-0.7,0.1s-0.1,0.3-0.1,0.5v6.1l5.9-0.2l0.1,0.1l0,1.5c-1.1-0.1-2.1-0.2-3.2-0.2
		s-2-0.1-2.9-0.1V132z"/>
	<path id="XMLID_37_" class="st0" d="M327.6,135.1c-0.3-0.4-0.6-0.9-0.9-1.3c-0.3-0.4-0.6-0.8-1-1.2l-9.4-11.2l-0.1,0v10.3
		c0,0.6,0,1,0.1,1.3s0.2,0.5,0.4,0.7c0.2,0.2,0.4,0.3,0.7,0.3s0.7,0.1,1.2,0.1l0,0.6c-0.4,0-0.8,0-1.3,0c-0.5,0-1,0-1.6,0
		c-0.4,0-0.9,0-1.4,0c-0.5,0-0.9,0-1.3,0l-0.1-0.6c0.5,0,0.9-0.1,1.2-0.2c0.3-0.1,0.5-0.2,0.7-0.4s0.3-0.5,0.4-0.9s0.1-1,0.1-1.7
		v-8.8c0-0.5,0-0.9,0-1.2s0-0.6-0.1-0.7c0-0.2-0.1-0.4-0.2-0.5s-0.2-0.3-0.3-0.4c-0.1-0.2-0.2-0.3-0.4-0.4s-0.3-0.2-0.4-0.3
		c-0.2-0.1-0.3-0.1-0.6-0.2s-0.5-0.1-0.8-0.1l0-0.6c0.1,0,0.3,0,0.6,0s0.6,0,0.9,0c0.3,0,0.7,0,1.1,0c0.4,0,0.7,0,1,0l11.3,13.3
		l0.1,0v-10.2c0-0.6,0-1-0.1-1.3c-0.1-0.3-0.2-0.5-0.4-0.7s-0.4-0.3-0.7-0.3c-0.3-0.1-0.7-0.1-1.2-0.1l0-0.6c0.4,0,0.8,0,1.3,0
		c0.5,0,1.1,0,1.6,0c0.2,0,0.5,0,0.7,0s0.5,0,0.7,0c0.2,0,0.5,0,0.7,0s0.4,0,0.6,0l0,0.6c-0.5,0-0.8,0.1-1.1,0.2
		c-0.3,0.1-0.5,0.2-0.7,0.4s-0.3,0.5-0.4,0.9s-0.1,0.9-0.1,1.7v13.2L327.6,135.1z"/>
	<path id="XMLID_39_" class="st0" d="M341.6,118c0.4,0,0.9,0,1.5,0c0.6,0,1.2,0,1.9,0c0.6,0,1.3,0,2,0c0.7,0,1.4,0,2.1,0
		c0,0.4-0.1,0.8-0.1,1.1s-0.1,0.7-0.1,1s0,0.7,0,1c0,0.3,0,0.7,0,1.1l-0.7,0c-0.1-0.6-0.2-1.2-0.3-1.6s-0.3-0.8-0.5-1.1
		c-0.2-0.3-0.6-0.5-0.9-0.6c-0.4-0.1-0.9-0.2-1.6-0.2h-2v13.8c0,0.3,0,0.5,0.1,0.7s0.2,0.3,0.3,0.5c0.2,0.1,0.4,0.2,0.7,0.3
		c0.3,0.1,0.8,0.1,1.4,0.1l0,0.6c-0.2,0-0.5,0-0.8,0c-0.3,0-0.6,0-1,0s-0.7,0-1,0c-0.3,0-0.6,0-0.9,0c-0.2,0-0.5,0-0.8,0
		s-0.6,0-0.8,0c-0.3,0-0.6,0-0.8,0s-0.5,0-0.8,0l-0.1-0.6c0.5,0,1-0.1,1.3-0.2s0.6-0.2,0.7-0.4s0.3-0.4,0.3-0.7s0.1-0.6,0.1-1.1
		v-13.2h-2c-0.7,0-1.2,0.1-1.6,0.2s-0.7,0.3-1,0.6c-0.2,0.3-0.4,0.6-0.6,1.1c-0.1,0.4-0.2,1-0.4,1.6l-0.7,0v-1.1c0-0.5,0-1,0-1.5
		c0-0.5-0.1-1-0.1-1.7c0.7,0,1.4,0,2.1,0c0.7,0,1.3,0,2,0c0.6,0,1.2,0,1.7,0C340.8,118,341.2,118,341.6,118z"/>
	<path id="XMLID_41_" class="st0" d="M379.4,122.6c0-0.7-0.2-1.3-0.5-1.8s-0.6-0.9-1-1.3c-0.4-0.3-0.9-0.6-1.5-0.8s-1.2-0.2-1.8-0.2
		c-1.2,0-2.3,0.2-3.1,0.6c-0.9,0.4-1.6,0.9-2.2,1.5c-0.6,0.7-1,1.5-1.3,2.4c-0.3,0.9-0.4,2-0.4,3.1c0,1.1,0.1,2.2,0.4,3.2
		c0.3,1,0.7,1.9,1.3,2.6c0.6,0.7,1.3,1.3,2.2,1.7c0.9,0.4,1.9,0.6,3.1,0.6c0.2,0,0.4,0,0.8-0.1s0.8-0.1,1.2-0.2
		c0.4-0.1,0.7-0.2,1-0.4c0.3-0.2,0.4-0.3,0.4-0.6v-3.5c0-0.3,0-0.5-0.1-0.7s-0.2-0.3-0.4-0.5c-0.2-0.1-0.5-0.2-0.9-0.3
		s-0.9-0.1-1.6-0.1l0-0.6c0.3,0,0.6,0,0.9,0s0.7,0,1,0c0.3,0,0.7,0,1,0s0.6,0,0.9,0c0.2,0,0.5,0,0.7,0c0.3,0,0.5,0,0.8,0
		s0.5,0,0.7,0s0.4,0,0.6,0l0.1,0.6c-0.3,0-0.6,0.1-0.8,0.2c-0.2,0.1-0.4,0.2-0.5,0.4s-0.2,0.4-0.2,0.7s-0.1,0.6-0.1,1.1v1.1
		c0,0.6,0,1.1,0,1.6s0,0.9,0.1,1.3c-1,0.3-1.9,0.5-2.9,0.7c-1,0.2-1.9,0.3-2.9,0.3c-1.4,0-2.6-0.2-3.8-0.6c-1.2-0.4-2.2-1-3-1.7
		s-1.5-1.7-2-2.7c-0.5-1.1-0.7-2.2-0.7-3.5c0-1.5,0.3-2.8,0.8-3.9c0.5-1.1,1.3-2.1,2.2-2.8c0.9-0.8,2-1.3,3.3-1.7
		c1.2-0.4,2.6-0.6,4-0.6c0.4,0,0.8,0,1.2,0.1c0.4,0,0.9,0.1,1.3,0.2c0.4,0.1,0.9,0.1,1.3,0.2s0.8,0.2,1.2,0.3
		c-0.1,0.8-0.1,1.5-0.1,2.1s0,1.4,0,2.1L379.4,122.6z"/>
	<path id="XMLID_43_" class="st0" d="M390.5,132.6c0,0.3,0,0.5,0,0.7c0,0.2,0.1,0.4,0.2,0.5c0.1,0.1,0.4,0.2,0.7,0.3
		c0.3,0.1,0.7,0.1,1.3,0.1v0.6c-0.6,0-1.1,0-1.7,0c-0.6,0-1.2,0-1.7,0c-0.2,0-0.5,0-0.7,0c-0.3,0-0.5,0-0.8,0c-0.3,0-0.5,0-0.7,0
		s-0.4,0-0.6,0l0-0.6c0.5,0,0.8-0.1,1.1-0.2c0.3-0.1,0.5-0.2,0.6-0.4s0.3-0.4,0.3-0.7s0.1-0.6,0.1-1.1v-11.8c0-0.3,0-0.5-0.1-0.7
		c0-0.2-0.1-0.3-0.3-0.5s-0.4-0.2-0.7-0.3s-0.7-0.1-1.2-0.1l0-0.6c0.2,0,0.4,0,0.7,0s0.5,0,0.8,0s0.6,0,0.9,0c0.3,0,0.6,0,0.9,0
		c0.5,0,0.9,0,1.4-0.1s1-0.1,1.5-0.1c0.7,0,1.4,0.1,2.1,0.2c0.7,0.1,1.3,0.3,1.9,0.6c0.6,0.3,1,0.7,1.4,1.2c0.4,0.5,0.5,1.2,0.5,2
		c0,0.5-0.1,1-0.3,1.5c-0.2,0.5-0.4,0.9-0.7,1.3s-0.7,0.7-1.1,1c-0.4,0.3-0.9,0.5-1.4,0.7c0.4,0.7,0.7,1.4,1.1,2.1
		c0.4,0.7,0.7,1.3,1,1.8c0.3,0.5,0.6,1,0.8,1.4c0.3,0.4,0.5,0.7,0.6,1c0.2,0.3,0.4,0.5,0.6,0.7c0.2,0.2,0.3,0.3,0.5,0.4
		s0.4,0.2,0.7,0.2c0.3,0,0.6,0.1,1,0.1l0,0.6c-0.4,0-0.8,0-1.4,0s-1.1,0-1.6,0c-0.2,0-0.3,0-0.5,0s-0.4,0-0.5,0
		c-0.1-0.2-0.3-0.6-0.5-1.1c-0.2-0.5-0.5-1-0.9-1.7c-0.3-0.6-0.7-1.3-1.1-2c-0.4-0.7-0.8-1.5-1.3-2.3c-0.1-0.1-0.1-0.2-0.2-0.3
		s-0.1-0.2-0.2-0.2s-0.2-0.1-0.4-0.1c-0.2,0-0.4-0.1-0.7-0.1h-0.5c-0.1,0-0.2,0-0.3,0s-0.3,0-0.5,0V132.6z M390.5,126.2
		c0.1,0,0.2,0,0.3,0c0.1,0,0.2,0,0.3,0h0.6c1.4,0,2.5-0.3,3.2-1c0.8-0.6,1.1-1.7,1.1-3.1c0-1.2-0.4-2.1-1.1-2.6
		c-0.7-0.6-1.7-0.8-2.9-0.8c-0.4,0-0.6,0-0.9,0.1s-0.4,0.2-0.4,0.3c-0.1,0.1-0.2,0.3-0.2,0.5c0,0.2,0,0.4,0,0.6V126.2z"/>
	<path id="XMLID_46_" class="st0" d="M413.9,117.6c1.3,0,2.5,0.2,3.5,0.6c1.1,0.4,2,1,2.8,1.7c0.8,0.8,1.4,1.7,1.8,2.7
		c0.4,1.1,0.6,2.2,0.6,3.6c0,1.3-0.2,2.5-0.6,3.6c-0.4,1.1-1,2-1.8,2.8c-0.8,0.8-1.7,1.4-2.7,1.9c-1.1,0.4-2.3,0.7-3.6,0.7
		c-1.3,0-2.5-0.2-3.5-0.6c-1.1-0.4-2-1-2.8-1.7c-0.8-0.8-1.4-1.7-1.8-2.7c-0.4-1.1-0.6-2.2-0.6-3.6c0-1.3,0.2-2.5,0.6-3.6
		c0.4-1.1,1-2,1.8-2.8c0.8-0.8,1.7-1.4,2.7-1.9C411.5,117.9,412.6,117.6,413.9,117.6z M413.8,118.6c-0.8,0-1.6,0.1-2.3,0.4
		c-0.7,0.3-1.4,0.7-2,1.3c-0.6,0.6-1,1.3-1.4,2.3c-0.3,0.9-0.5,2.1-0.5,3.4c0,1.6,0.2,2.9,0.6,4c0.4,1.1,0.9,1.9,1.5,2.6
		c0.6,0.7,1.3,1.1,2,1.4c0.8,0.3,1.5,0.4,2.3,0.4c0.8,0,1.6-0.1,2.3-0.4c0.7-0.3,1.4-0.7,2-1.3c0.6-0.6,1-1.3,1.4-2.3
		c0.3-0.9,0.5-2.1,0.5-3.4c0-1.6-0.2-2.9-0.6-4c-0.4-1.1-0.9-1.9-1.5-2.6c-0.6-0.7-1.3-1.1-2-1.4
		C415.3,118.7,414.6,118.6,413.8,118.6z"/>
	<path id="XMLID_49_" class="st0" d="M431.5,129.1c0,0.8,0.1,1.6,0.4,2.2c0.3,0.6,0.7,1.1,1.1,1.5s1,0.7,1.6,0.8
		c0.6,0.2,1.2,0.3,1.8,0.3c0.6,0,1.2-0.1,1.8-0.3c0.6-0.2,1.1-0.5,1.5-0.9s0.8-1,1.1-1.7s0.4-1.5,0.4-2.4v-7.4c0-0.5,0-0.9-0.1-1.2
		c-0.1-0.3-0.2-0.6-0.4-0.7s-0.5-0.3-0.9-0.4s-0.8-0.1-1.4-0.2l0-0.6c0.4,0,0.9,0,1.5,0c0.6,0,1.2,0,1.8,0c0.5,0,1.1,0,1.6,0
		s1,0,1.4,0l0,0.6c-0.5,0-0.9,0.1-1.3,0.2s-0.6,0.2-0.8,0.4s-0.3,0.5-0.4,0.8s-0.1,0.9-0.1,1.5v7.4c0,1.1-0.2,2.1-0.6,2.9
		c-0.4,0.8-0.9,1.5-1.5,2c-0.6,0.5-1.3,0.9-2.1,1.1c-0.8,0.2-1.6,0.3-2.4,0.3c-0.8,0-1.6-0.1-2.3-0.3c-0.7-0.2-1.4-0.6-2-1
		c-0.6-0.5-1-1-1.4-1.7c-0.3-0.7-0.5-1.5-0.5-2.4v-9.4c0-0.3,0-0.5-0.1-0.7c-0.1-0.2-0.2-0.4-0.3-0.5s-0.4-0.2-0.7-0.3
		s-0.7-0.1-1.3-0.1l0-0.6c0.2,0,0.5,0,0.7,0c0.3,0,0.6,0,0.9,0c0.3,0,0.7,0,1,0c0.3,0,0.6,0,0.9,0c0.2,0,0.5,0,0.8,0s0.6,0,0.9,0
		s0.6,0,0.8,0s0.5,0,0.7,0l0.1,0.6c-0.5,0-0.9,0.1-1.2,0.2s-0.6,0.2-0.7,0.4s-0.3,0.4-0.4,0.7c-0.1,0.3-0.1,0.6-0.1,1.1V129.1z"/>
	<path id="XMLID_51_" class="st0" d="M453,132.6c0,0.3,0,0.5,0.1,0.7s0.1,0.4,0.3,0.5c0.2,0.1,0.4,0.2,0.8,0.3
		c0.4,0.1,0.9,0.1,1.5,0.1l0,0.6c-0.6,0-1.3,0-2,0c-0.7,0-1.3,0-1.9,0c-0.2,0-0.5,0-0.7,0c-0.3,0-0.5,0-0.8,0c-0.3,0-0.5,0-0.7,0
		s-0.4,0-0.6,0l0-0.6c0.5,0,0.8-0.1,1.1-0.2c0.3-0.1,0.5-0.2,0.6-0.4s0.3-0.4,0.3-0.7s0.1-0.6,0.1-1.1v-11.8c0-0.3,0-0.5-0.1-0.7
		c0-0.2-0.1-0.3-0.3-0.5s-0.4-0.2-0.7-0.3s-0.7-0.1-1.2-0.1l0-0.6c0.2,0,0.4,0,0.7,0s0.5,0,0.8,0s0.6,0,0.9,0c0.3,0,0.6,0,0.9,0
		c0.4,0,0.9,0,1.4-0.1c0.5-0.1,1.1-0.1,1.6-0.1c0.8,0,1.6,0.1,2.4,0.2c0.8,0.2,1.4,0.4,2,0.8c0.6,0.4,1,0.9,1.4,1.5
		c0.3,0.6,0.5,1.4,0.5,2.3c0,0.9-0.2,1.7-0.5,2.4s-0.8,1.2-1.4,1.7c-0.6,0.4-1.2,0.8-2,1c-0.7,0.2-1.5,0.3-2.2,0.3
		c-0.4,0-0.9,0-1.3-0.1c-0.4-0.1-0.7-0.1-0.9-0.2V132.6z M453,126.8c0.3,0.1,0.6,0.1,0.9,0.2s0.6,0.1,1,0.1c0.5,0,0.9-0.1,1.4-0.2
		s0.9-0.4,1.3-0.7c0.4-0.3,0.7-0.8,1-1.3s0.4-1.2,0.4-2.1c0-1.3-0.4-2.3-1.1-3c-0.7-0.6-1.8-1-3.1-1c-0.4,0-0.7,0-1,0.1
		s-0.4,0.1-0.5,0.2s-0.2,0.2-0.2,0.4c0,0.2-0.1,0.4-0.1,0.6V126.8z"/>
</g>
</svg>
